<?xml version="1.0" encoding="UTF-8"?>
<svg version="1.1" xmlns="http://www.w3.org/2000/svg" width="64" height="64">
<path d="M0 0 C5.81075326 3.51144444 10.57321859 8.99220796 12.5625 15.5 C12.828125 18.875 12.828125 18.875 12.8125 22.5 C12.82023437 24.294375 12.82023437 24.294375 12.828125 26.125 C12.5625 29.5 12.5625 29.5 11.484375 32.1875 C10.38071466 34.9560039 10.5201124 35.7516257 11.5625 38.5 C13.24426769 40.49772893 13.24426769 40.49772893 15.37890625 42.3984375 C16.14267578 43.12546875 16.90644531 43.8525 17.69335938 44.6015625 C19.31265157 46.11550316 20.93766221 47.62335081 22.56835938 49.125 C23.33083984 49.85460938 24.09332031 50.58421875 24.87890625 51.3359375 C25.58474854 51.99126465 26.29059082 52.6465918 27.01782227 53.32177734 C29.04745632 56.1838597 28.92102854 58.06781437 28.5625 61.5 C27.5625 62.5 27.5625 62.5 24.77172852 62.81079102 C20.79211192 62.42539338 19.8660141 61.44564077 17.21484375 58.52734375 C16.44462891 57.71072266 15.67441406 56.89410156 14.88085938 56.05273438 C14.09517578 55.18970703 13.30949219 54.32667969 12.5 53.4375 C10.94026607 51.72497581 9.36659583 50.02501046 7.77734375 48.33984375 C7.08761475 47.58050537 6.39788574 46.82116699 5.68725586 46.03881836 C3.6497336 44.21401038 3.6497336 44.21401038 0.98657227 44.69750977 C-0.82213409 45.29628284 -2.63002853 45.89750951 -4.4375 46.5 C-12.33847319 47.11240072 -19.99587248 47.67347714 -26.4375 42.5 C-31.48271222 37.69551361 -35.04312995 33.33822945 -35.7734375 26.23046875 C-35.86733204 17.71423427 -35.5552288 11.82404506 -29.56640625 5.53515625 C-21.52363185 -1.89946886 -10.4806088 -4.64434821 0 0 Z M-24.8125 14.125 C-27.01657893 18.70270239 -27.2346639 22.50552411 -26.4375 27.5 C-24.10781069 32.33858548 -21.27608548 35.17031069 -16.4375 37.5 C-11.44302411 38.2971639 -7.64020239 38.07907893 -3.0625 35.875 C0.52157713 32.63226355 3.15785241 30.03524104 3.9453125 25.1015625 C4.20133919 19.41777006 3.49876932 15.85061345 -0.4375 11.5 C-4.78811345 7.56373068 -8.35527006 6.86116081 -14.0390625 7.1171875 C-18.97274104 7.90464759 -21.56976355 10.54092287 -24.8125 14.125 Z " fill="#FFFFFF" transform="translate(35.4375,1.5)"/>
</svg>
